subject01_walk1_RRA_states
nRows=7
nColumns=47

# SIMM Motion File Header:
name subject01_walk1_RRA_states
datacolumns 47
datarows 7
otherdata 1
range 1.62299999999993180000 1.62599999999993150000
endheader
time	pelvis_tx	pelvis_ty	pelvis_tz	pelvis_tilt	pelvis_list	pelvis_rotation	hip_flexion_r	hip_adduction_r	hip_rotation_r	knee_angle_r	ankle_angle_r	subtalar_angle_r	mtp_angle_r	hip_flexion_l	hip_adduction_l	hip_rotation_l	knee_angle_l	ankle_angle_l	subtalar_angle_l	mtp_angle_l	lumbar_extension	lumbar_bending	lumbar_rotation	pelvis_tx_u	pelvis_ty_u	pelvis_tz_u	pelvis_tilt_u	pelvis_list_u	pelvis_rotation_u	hip_flexion_r_u	hip_adduction_r_u	hip_rotation_r_u	knee_angle_r_u	ankle_angle_r_u	subtalar_angle_r_u	mtp_angle_r_u	hip_flexion_l_u	hip_adduction_l_u	hip_rotation_l_u	knee_angle_l_u	ankle_angle_l_u	subtalar_angle_l_u	mtp_angle_l_u	lumbar_extension_u	lumbar_bending_u	lumbar_rotation_u
      1.62299999999993180000	      0.61311892929615208000	      1.05089960087011790000	      0.00137682434733090600	      6.08181247372375820000	     -1.65614936832139060000	      0.31726949097596963000	     18.83619050201044200000	     -3.68967897998441870000	     -7.69710113187430520000	    -58.24025179695939900000	      2.45058303755563460000	     -0.01082508859840588400	      0.01230606197565446500	     -5.05049108250145280000	      1.66582035528221880000	      0.84675979681575686000	     -8.54178617792426390000	      5.78358887281412230000	      0.11231881003361746000	      0.02431777141032265300	    -15.83589853805818700000	     -0.42925707138603730000	     -6.56765165527832280000	     -0.11691077672895937000	     -0.02986258589434881800	     -0.06168980647433929000	     -9.98067436551716720000	      1.12285871022302920000	      9.23573107454622110000	     72.94326245050783100000	     -0.52984846391714080000	    -37.53633021105664400000	    234.12772256614039000000	     -5.18375525752059300000	      0.04562768203625654200	     -0.03916954130763916600	    -77.77156647914519300000	      2.89844780438545820000	      8.94821106785484940000	     52.29930815903151900000	     24.98130569211547700000	      0.61864415020301111000	     -0.68810520325747293000	      1.19866372826029610000	      7.59517166718170510000	     -7.30907995287807300000
      1.62349999999993180000	      0.61306047002761788000	      1.05088442974723170000	      0.00134607814409562900	      6.07680875722762610000	     -1.65555275968520890000	      0.32183122652515711000	     18.87254800570857700000	     -3.68998743315958190000	     -7.71592986614597990000	    -58.12287629600604100000	      2.44798057217817270000	     -0.01080229697904339400	      0.01228641728949723300	     -5.08935430632006010000	      1.66730320054801750000	      0.85117320240670336000	     -8.51565456234125580000	      5.79607687884008450000	      0.11262693696743295000	      0.02397378075301836300	    -15.83528874248651700000	     -0.42550439389012212000	     -6.57124999515854570000	     -0.11692543695142030000	     -0.03082148923013345800	     -0.06129490858384729200	    -10.03409199616005100000	      1.26358580370090650000	      9.01139403034004080000	     72.48628901872403700000	     -0.70343757915594907000	    -37.77821562032043800000	    235.37450107702492000000	     -5.22553694450968200000	      0.04554022309594967600	     -0.03941239712708088900	    -77.68166459396231000000	      3.03301067500264440000	      8.70579871523654350000	     52.22747814568112500000	     24.97130798007173200000	      0.61373889131424542000	     -0.68834001144647450000	      1.24049526311117540000	      7.41552311457542590000	     -7.08459564161852300000
      1.62399999999993170000	      0.61300200471939426000	      1.05086877979555520000	      0.00131552954417065470	      6.07177848102239890000	     -1.65488577194793400000	      0.32628106562056641000	     18.90867632932830500000	     -3.69038189048229630000	     -7.73487895284735850000	    -58.00487707608957100000	      2.44535806530384650000	     -0.01077954822476530200	      0.01226664996729661200	     -5.12817308172608840000	      1.66885343902757550000	      0.85546596346269344000	     -8.48955837940405370000	      5.80856049584558850000	      0.11293254276808810000	      0.02362944781223083300	    -15.83465806557125800000	     -0.42184156511924131000	     -6.57473656490054200000	     -0.11693493599399367000	     -0.03177790305639805600	     -0.06089937853754199400	    -10.08691369240255000000	      1.40437626439635490000	      8.78814089642434300000	     72.02654584033827200000	     -0.87386410488336275000	    -38.01773275900518500000	    236.62259681851899000000	     -5.26393043488171750000	      0.04545367734490501900	     -0.03965290577204250800	    -77.59377073637185200000	      3.16801188683895240000	      8.46559461214421200000	     52.15757076854523400000	     24.96321554835168000000	      0.60880447841816754000	     -0.68850182018017259000	      1.28218997109285970000	      7.23577354384123160000	     -6.86199546783557500000
      1.62449999999993170000	      0.61294353595115147000	      1.05085265224915720000	      0.00128517886651783830	      6.06672194408254750000	     -1.65414837194209510000	      0.33061955260054993000	     18.94457409154884100000	     -3.69086076967832350000	     -7.75394719271368600000	    -57.88625348290498400000	      2.44271718955454810000	     -0.01075684317402762100	      0.01224676475417118800	     -5.16694841453794050000	      1.67047128567646610000	      0.85963916902317528000	     -8.46349667186862400000	      5.82104034302636730000	      0.11323571719219352000	      0.02328541846610026800	    -15.83400657633458600000	     -0.41826863747109666000	     -6.57811230895696130000	     -0.11693927789293310000	     -0.03273188541009636900	     -0.06050324317856660400	    -10.13913192581322400000	      1.54523561475726120000	      8.56599905469966490000	     71.56404312189404500000	     -1.04112510994792620000	    -38.25481230388570000000	    237.87198870368556000000	     -5.29903699094080950000	      0.04536786831792646200	     -0.03989118983495161500	    -77.50790201168899800000	      3.30345260477237360000	      8.22762368179135000000	     52.08958202905324000000	     24.95664121807303800000	      0.60373175772478382000	     -0.68787180340534804000	      1.32374157434711020000	      7.05592122196885450000	     -6.64130554133830130000
      1.62499999999993160000	      0.61288506630023176000	      1.05083604830752230000	      0.00125502639771862480	      6.06163945149461370000	     -1.65334052296463190000	      0.33484725409936339000	     18.98023991358535800000	     -3.69142248853599670000	     -7.77313334671275060000	    -57.76700487467362400000	      2.44005955933565040000	     -0.01073418024328093100	      0.01222675913991162800	     -5.20568132480824630000	      1.67215696623387910000	      0.86369396740041016000	     -8.43746847662101020000	      5.83351745219707050000	      0.11353626889149485000	      0.02294160901538635000	    -15.83333434958283100000	     -0.41478566245327819000	     -6.58137819304248420000	     -0.11693846740970626000	     -0.03368348189393712700	     -0.06010652789940677800	    -10.19073557646479400000	      1.68617519885487480000	      8.34499396131420570000	     71.09878765282714100000	     -1.20522377048040430000	    -38.48938081184610400000	    239.12265532182579000000	     -5.33095736355401420000	      0.04528279339880513000	     -0.04012728631522313000	    -77.42407998480000200000	      3.43934101416470340000	      7.99193536811034200000	     52.02351824745392200000	     24.95198411437870700000	      0.59863259259580559000	     -0.68708938924292917000	      1.36513945535756310000	      6.87595755437843610000	     -6.42255146818514700000
      1.62549999999993160000	      0.61282659834408482000	      1.05081896916221050000	      0.00122507243015210450	      6.05653131213986030000	     -1.65246218233704560000	      0.33896474047943209000	     19.01567242257564400000	     -3.69206546626462730000	     -7.79243614349464140000	    -57.64713061863926000000	      2.43738674628289950000	     -0.01071156018531122000	      0.01220663781306295700	     -5.24437283785451940000	      1.67391070168954340000	      0.86763148777354049000	     -8.41147283370427170000	      5.84599257643786710000	      0.11383431647542079000	      0.02259848275391195700	    -15.83264146323862500000	     -0.41139269875488033000	     -6.58453518749050910000	     -0.11693249488358878000	     -0.03463270708936550700	     -0.05970926378631671900	    -10.24171723192506900000	      1.82720122130788590000	      8.12515257657296350000	     70.63079287508875800000	     -1.36615929857118010000	    -38.72136867841189200000	    240.37457405526195000000	     -5.35979313044996530000	      0.04519883580746448400	     -0.04036130919389878400	    -77.34231821933676100000	      3.57567940030838780000	      7.75854881107231440000	     51.95937441454439200000	     24.94885037072026500000	      0.59334380768127004000	     -0.68543222873499510000	      1.40637897579853450000	      6.69588086379143470000	     -6.20576002957131400000
      1.62599999999993150000	      0.61276813466724356000	      1.05080141599516860000	      0.00119531722089111830	      6.05139783979389460000	     -1.65151330540196370000	      0.34297260471695107000	     19.05087025142362800000	     -3.69278812139552760000	     -7.81185427299188100000	    -57.52663009546279900000	      2.43470026342677890000	     -0.01068898125069913500	      0.01218639817227659000	     -5.28302398948639950000	      1.67573272184886420000	      0.87145290856790636000	     -8.38550878124368280000	      5.85846662607603720000	      0.11412960368151016000	      0.02225621077853257000	    -15.83192799852767500000	     -0.40808980181803461000	     -6.58758428444862340000	     -0.11692135099035653000	     -0.03557956222596234100	     -0.05931147821745681000	    -10.29206549069473200000	      1.96832528035682120000	      7.90649962792552860000	     70.16006829854079300000	     -1.52393612995438700000	    -38.95070172927498200000	    241.62772219845678000000	     -5.38564554791329720000	      0.04511582310300190500	     -0.04059326707027320600	    -77.26263550419214700000	      3.71247500504206180000	      7.52751813242781150000	     51.89715683559417400000	     24.94768644993150600000	      0.58801417450388993000	     -0.68362018335259955000	      1.44745074817890300000	      6.51568281358793660000	     -5.99095707458852990000
